HIERARCHY
ROOT joint_Root
{
	OFFSET 0.0 0.0 0.0
	CHANNELS 6 Xposition Yposition Zposition Zrotation Xrotation Yrotation 
	JOINT Hips
	{
		OFFSET -0.726466 93.3139 -2.00062
		CHANNELS 6 Xposition Yposition Zposition Zrotation Xrotation Yrotation 
		JOINT Spine
		{
			OFFSET 15.7357 0.0 0.0
			CHANNELS 6 Xposition Yposition Zposition Zrotation Xrotation Yrotation 
			JOINT Chest
			{
				OFFSET 8.98455 -0.406207 0.0
				CHANNELS 6 Xposition Yposition Zposition Zrotation Xrotation Yrotation 
				JOINT Neck
				{
					OFFSET 16.3773 0.0 0.0
					CHANNELS 6 Xposition Yposition Zposition Zrotation Xrotation Yrotation 
					JOINT Head
					{
						OFFSET 6.45672 0.0 0.0
						CHANNELS 6 Xposition Yposition Zposition Zrotation Xrotation Yrotation 
						End Site
						{
							OFFSET 0.0 0.0 0.0
						}
					}
				}
				JOINT Shoulder_L
				{
					OFFSET 12.9942 -0.242716 4.98039
					CHANNELS 6 Xposition Yposition Zposition Zrotation Xrotation Yrotation 
					JOINT UpperArm_L
					{
						OFFSET 5.34809 0.0 0.0
						CHANNELS 6 Xposition Yposition Zposition Zrotation Xrotation Yrotation 
						JOINT LowerArm_L
						{
							OFFSET 24.3286 1.87007e-05 0.0
							CHANNELS 6 Xposition Yposition Zposition Zrotation Xrotation Yrotation 
							JOINT Hand_L
							{
								OFFSET 22.2916 0.0 0.0
								CHANNELS 6 Xposition Yposition Zposition Zrotation Xrotation Yrotation 
								End Site
								{
									OFFSET 0.0 0.0 0.0
								}
							}
						}
					}
				}
				JOINT Shoulder_R
				{
					OFFSET 12.9945 -0.242716 -4.98039
					CHANNELS 6 Xposition Yposition Zposition Zrotation Xrotation Yrotation 
					JOINT UpperArm_R
					{
						OFFSET -5.34813 0.0 0.0
						CHANNELS 6 Xposition Yposition Zposition Zrotation Xrotation Yrotation 
						JOINT LowerArm_R
						{
							OFFSET -24.3289 0.000322201 0.0
							CHANNELS 6 Xposition Yposition Zposition Zrotation Xrotation Yrotation 
							JOINT Hand_R
							{
								OFFSET -22.2915 -0.000108084 0.0
								CHANNELS 6 Xposition Yposition Zposition Zrotation Xrotation Yrotation 
								End Site
								{
									OFFSET 0.0 0.0 0.0
								}
							}
						}
					}
				}
			}
		}
		JOINT UpperLeg_L
		{
			OFFSET -2.19248 -6.46944 0.0
			CHANNELS 6 Xposition Yposition Zposition Zrotation Xrotation Yrotation 
			JOINT LowerLeg_L
			{
				OFFSET 39.0811 0.0 -1.23785e-05
				CHANNELS 6 Xposition Yposition Zposition Zrotation Xrotation Yrotation 
				JOINT Foot_L
				{
					OFFSET 40.9854 0.0 -1.26872e-05
					CHANNELS 6 Xposition Yposition Zposition Zrotation Xrotation Yrotation 
					JOINT Toes_L
					{
						OFFSET 11.7543 0.0 0.0
						CHANNELS 6 Xposition Yposition Zposition Zrotation Xrotation Yrotation 
						End Site
						{
							OFFSET 0.0 0.0 0.0
						}
					}
				}
			}
		}
		JOINT UpperLeg_R
		{
			OFFSET -2.19251 6.46944 0.0
			CHANNELS 6 Xposition Yposition Zposition Zrotation Xrotation Yrotation 
			JOINT LowerLeg_R
			{
				OFFSET -39.0811 -0.00228153 -0.0401928
				CHANNELS 6 Xposition Yposition Zposition Zrotation Xrotation Yrotation 
				JOINT Foot_R
				{
					OFFSET -40.9854 0.0 0.0
					CHANNELS 6 Xposition Yposition Zposition Zrotation Xrotation Yrotation 
					JOINT Toes_R
					{
						OFFSET -11.7543 0.0 0.0
						CHANNELS 6 Xposition Yposition Zposition Zrotation Xrotation Yrotation 
						End Site
						{
							OFFSET 0.0 0.0 0.0
						}
					}
				}
			}
		}
	}
}
MOTION
Frames:	5
Frame Time:	0.0333333
0.000000 0.000000 0.000000 0.000000 0.000000 -0.000000 -0.304957 91.924400 0.702077 87.775400 -3.374770 3.126400 15.735700 0.000005 -0.000001 82.562300 86.747400 -81.896100 8.984550 -0.406207 -0.000000 -1.309990 -0.894657 1.321640 16.377300 -0.000001 -0.000001 3.049770 -1.168690 0.570741 6.456720 -0.000001 -0.000000 4.231600 -1.105500 -0.318784 12.994200 -0.242716 4.980390 -90.309400 0.876971 -70.565900 5.348090 -0.000007 -0.000001 -67.060700 36.423800 -10.686600 24.328600 0.000019 0.000005 3.606010 5.489580 -33.375200 22.291600 -0.000001 0.000005 1.532240 5.626820 -13.101400 12.994500 -0.242716 -4.980390 88.074700 5.497150 -70.663900 -5.348130 -0.000001 -0.000004 -61.752500 30.779800 -12.967500 -24.328900 0.000322 -0.000009 1.677300 2.876260 -30.282400 -22.291500 -0.000108 -0.000004 8.317360 5.647210 -14.754000 -2.192480 -6.469440 -0.000000 -168.820000 -19.116400 -1.487360 39.081100 -0.000007 -0.000012 -0.190507 0.466868 22.198300 40.985400 -0.000006 -0.000013 -7.356210 -2.821770 -64.983800 11.754300 -0.000000 0.000003 -0.000126 -0.001254 -16.625400 -2.192510 6.469440 -0.000001 173.600000 21.143300 179.985000 -39.081100 -0.002282 -0.040193 -0.031532 0.098840 19.424500 -40.985400 0.000008 0.000006 -3.754900 2.003130 -63.703900 -11.754300 -0.000006 -0.000006 -0.003279 -0.043719 -18.351200
0.000000 0.000000 0.000000 0.000000 0.000000 -0.000000 -0.367242 91.917900 0.698399 87.770300 -3.357040 3.113560 15.735700 0.000005 -0.000001 82.480700 86.708800 -81.776100 8.984550 -0.406207 -0.000000 -1.234220 -0.916529 1.398880 16.377300 -0.000001 -0.000001 2.824170 -1.190930 0.565124 6.456720 -0.000001 -0.000000 4.160370 -1.061100 -0.354198 12.994200 -0.242716 4.980390 -90.307100 0.877277 -70.709500 5.348090 -0.000007 -0.000001 -65.434800 36.805400 -11.651800 24.328600 0.000019 0.000005 3.450510 5.060090 -34.357100 22.291600 -0.000001 0.000005 1.334130 5.627570 -13.156000 12.994500 -0.242716 -4.980390 88.118000 5.378970 -70.683300 -5.348130 -0.000001 -0.000004 -61.716400 31.051800 -13.000400 -24.328900 0.000322 -0.000009 1.683150 2.842740 -30.662900 -22.291500 -0.000108 -0.000004 8.391760 5.647450 -14.776200 -2.192480 -6.469440 -0.000000 -168.777000 -19.099100 -1.517020 39.081100 -0.000007 -0.000012 -0.191027 0.467848 22.210900 40.985400 -0.000006 -0.000013 -7.392390 -2.799770 -64.967900 11.754300 -0.000000 0.000003 -0.000141 -0.001380 -16.630100 -2.192510 6.469440 -0.000001 173.638000 21.122300 179.956000 -39.081100 -0.002282 -0.040193 -0.035534 0.110016 19.452800 -40.985400 0.000008 0.000006 -3.913130 1.976330 -63.719200 -11.754300 -0.000006 -0.000006 -0.003287 -0.043811 -18.354900
0.000000 0.000000 0.000000 0.000000 0.000000 -0.000000 -0.445845 91.930700 0.649091 87.742000 -3.278830 3.132980 15.735700 0.000005 -0.000001 82.302000 86.653100 -81.547600 8.984550 -0.406207 -0.000000 -1.125770 -0.954997 1.498890 16.377300 -0.000001 -0.000001 2.633250 -1.221090 0.549114 6.456720 -0.000001 -0.000000 3.972360 -1.041440 -0.385736 12.994200 -0.242716 4.980390 -90.304600 0.874787 -70.800300 5.348090 -0.000007 -0.000001 -62.965400 36.995500 -13.276600 24.328600 0.000019 0.000005 3.443740 4.802030 -35.710200 22.291600 -0.000001 0.000005 1.470010 5.632880 -13.554700 12.994500 -0.242716 -4.980390 88.195000 5.179330 -70.756600 -5.348130 -0.000001 -0.000004 -61.608100 31.626900 -12.953200 -24.328900 0.000322 -0.000009 1.606280 2.649450 -31.259900 -22.291500 -0.000108 -0.000004 8.399730 5.647930 -14.820600 -2.192480 -6.469440 -0.000000 -168.690000 -19.093200 -1.495760 39.081100 -0.000007 -0.000012 -0.190208 0.468060 22.115900 40.985400 -0.000006 -0.000013 -7.416780 -2.729590 -64.858000 11.754300 -0.000000 0.000003 -0.000124 -0.001232 -16.624600 -2.192510 6.469440 -0.000001 173.748000 21.168500 179.951000 -39.081100 -0.002282 -0.040193 -0.031744 0.099187 19.470400 -40.985400 0.000008 0.000006 -3.676970 1.889760 -63.746600 -11.754300 -0.000006 -0.000006 -0.003330 -0.044280 -18.374000
0.000000 0.000000 0.000000 0.000000 0.000000 -0.000000 -0.548399 91.929100 0.601987 87.710400 -3.078170 3.138850 15.735700 0.000005 -0.000001 81.739000 86.591200 -80.922800 8.984550 -0.406207 -0.000000 -1.011190 -1.041880 1.622600 16.377300 -0.000001 -0.000001 2.418710 -1.219640 0.511874 6.456720 -0.000001 -0.000000 3.767320 -1.044130 -0.474755 12.994200 -0.242716 4.980390 -90.268800 0.774024 -70.848100 5.348090 -0.000007 -0.000001 -59.954800 36.591300 -15.519100 24.328600 0.000019 0.000005 3.418290 4.502140 -37.268900 22.291600 -0.000001 0.000005 1.678120 5.635520 -13.760800 12.994500 -0.242716 -4.980390 88.299200 4.896730 -70.819000 -5.348130 -0.000001 -0.000004 -61.087800 33.071300 -12.950600 -24.328900 0.000322 -0.000009 1.563870 2.483280 -32.233800 -22.291500 -0.000108 -0.000004 8.888460 5.649190 -14.937300 -2.192480 -6.469440 -0.000000 -168.615000 -18.955600 -1.585510 39.081100 -0.000007 -0.000012 -0.188949 0.464602 22.131300 40.985400 -0.000006 -0.000013 -7.452830 -2.662620 -64.786100 11.754300 -0.000000 0.000003 -0.000126 -0.001257 -16.625500 -2.192510 6.469440 -0.000001 173.840000 21.252500 179.960000 -39.081100 -0.002282 -0.040193 -0.034688 0.107470 19.478000 -40.985400 0.000008 0.000006 -3.799860 1.789200 -63.762500 -11.754300 -0.000006 -0.000006 -0.003244 -0.043335 -18.335600
0.000000 0.000000 0.000000 0.000000 0.000000 -0.000000 -0.647570 91.950400 0.525904 87.727700 -2.905190 3.093640 15.735700 0.000005 -0.000001 81.734000 86.541700 -80.870800 8.984550 -0.406207 -0.000000 -0.912688 -1.059560 1.717270 16.377300 -0.000001 -0.000001 2.157500 -1.193260 0.448380 6.456720 -0.000001 -0.000000 3.589930 -1.057830 -0.554434 12.994200 -0.242716 4.980390 -90.217200 0.628210 -70.925300 5.348090 -0.000007 -0.000001 -56.313400 35.623800 -18.298700 24.328600 0.000019 0.000005 3.436640 4.239610 -39.087300 22.291600 -0.000001 0.000005 2.309970 5.640800 -14.192000 12.994500 -0.242716 -4.980390 88.430200 4.534200 -70.880300 -5.348130 -0.000001 -0.000004 -60.258200 35.204600 -12.954200 -24.328900 0.000322 -0.000009 1.346480 2.032390 -33.557400 -22.291500 -0.000108 -0.000004 10.150800 5.653110 -15.318300 -2.192480 -6.469440 -0.000000 -168.598000 -18.952300 -1.657780 39.081100 -0.000007 -0.000012 -0.186340 0.462020 21.965200 40.985400 -0.000006 -0.000013 -7.467440 -2.567490 -64.587100 11.754300 -0.000000 0.000003 -0.000127 -0.001260 -16.625700 -2.192510 6.469440 -0.000001 173.940000 21.368500 179.883000 -39.081100 -0.002282 -0.040193 -0.031923 0.099610 19.485500 -40.985400 0.000008 0.000006 -3.561260 1.706810 -63.780200 -11.754300 -0.000006 -0.000006 -0.003348 -0.044473 -18.381900
